<?xml version="1.0" standalone="no"?>
<!DOCTYPE svg PUBLIC "-//W3C//DTD SVG 20010904//EN"
 "http://www.w3.org/TR/2001/REC-SVG-20010904/DTD/svg10.dtd">
<svg version="1.0" xmlns="http://www.w3.org/2000/svg"
 width="512.000000pt" height="512.000000pt" viewBox="0 0 512.000000 512.000000"
 preserveAspectRatio="xMidYMid meet">

<g transform="translate(0.000000,512.000000) scale(0.100000,-0.100000)"
fill="#000000" stroke="none">
<path d="M2010 5077 c-140 -39 -235 -163 -233 -302 1 -103 317 -1802 341
-1835 10 -14 33 -32 51 -42 18 -9 35 -19 38 -21 2 -3 -27 -95 -65 -204 -59
-168 -182 -544 -182 -558 0 -3 -372 -6 -827 -7 l-828 -3 -47 -28 c-85 -50
-122 -144 -94 -239 24 -82 86 -138 173 -156 l37 -8 13 -89 c42 -292 166 -623
328 -871 166 -255 403 -489 645 -634 l83 -50 1118 0 1118 0 58 34 c422 249
744 657 908 1150 37 111 76 279 100 426 5 33 8 36 56 47 103 25 163 101 163
208 1 101 -57 178 -153 205 -23 6 -306 10 -762 10 l-726 0 -146 193 c-126 166
-270 346 -478 595 -52 63 -52 63 -30 78 27 19 51 66 51 100 0 15 -72 421 -160
903 -111 607 -167 891 -182 924 -26 57 -102 131 -162 158 -58 25 -149 32 -206
16z m174 -123 c44 -23 65 -44 87 -85 18 -37 347 -1794 337 -1804 -3 -3 -90
-21 -194 -40 -148 -27 -191 -32 -200 -22 -6 7 -84 409 -173 895 -184 1002
-177 930 -91 1013 70 68 153 83 234 43z m362 -2286 c53 -122 127 -298 164
-390 l69 -168 -190 0 -189 0 0 118 c0 147 20 662 26 682 7 21 8 20 120 -242z
m262 -75 c89 -110 210 -263 268 -339 l106 -139 -138 -3 c-75 -1 -141 1 -145 5
-4 4 -26 55 -49 113 -23 58 -89 216 -146 351 -57 136 -104 250 -104 255 1 11
3 8 208 -243z m-509 22 c-4 -88 -8 -227 -8 -310 -1 -82 -4 -160 -7 -172 -6
-22 -11 -23 -106 -23 l-100 0 7 33 c9 39 177 547 200 601 9 21 17 37 19 35 1
-2 -1 -76 -5 -164z m2501 -630 c66 -34 76 -121 19 -169 l-31 -26 -2221 0
c-1751 0 -2227 3 -2247 13 -14 7 -33 29 -44 50 -16 34 -17 42 -4 75 9 25 25
43 48 54 33 17 161 18 2243 18 1954 0 2211 -2 2237 -15z m-167 -342 c-86 -603
-400 -1113 -892 -1452 l-75 -51 -1104 0 -1105 0 -76 52 c-153 104 -339 276
-456 421 -139 173 -274 420 -344 632 -40 121 -91 346 -91 404 l0 31 2074 0
2075 0 -6 -37z"/>
<path d="M2751 4419 c-129 -100 -156 -133 -134 -162 124 -158 207 -259 220
-264 24 -9 67 19 71 45 3 16 -16 48 -58 103 l-61 79 34 0 c19 0 99 -9 178 -19
526 -70 889 -212 889 -347 0 -138 -393 -287 -934 -355 -109 -13 -143 -32 -131
-72 12 -40 35 -49 105 -42 559 52 993 223 1066 419 15 42 16 54 5 94 -23 87
-88 148 -236 220 -166 82 -469 158 -787 198 -82 10 -148 21 -148 24 1 3 30 26
65 53 66 49 76 68 55 108 -22 40 -61 24 -199 -82z"/>
<path d="M1520 4314 c-527 -70 -900 -212 -987 -378 -9 -17 -17 -54 -17 -81 -1
-192 297 -345 858 -440 81 -14 161 -25 178 -25 17 0 28 -5 26 -11 -2 -6 -33
-34 -68 -63 -39 -31 -66 -61 -68 -75 -4 -27 24 -61 50 -61 11 0 75 43 143 96
147 112 155 120 155 144 0 10 -48 79 -106 154 -92 117 -110 136 -135 136 -32
0 -59 -23 -59 -50 0 -10 25 -50 56 -89 51 -65 53 -71 32 -71 -45 0 -331 50
-455 80 -642 153 -656 385 -33 540 131 33 355 73 510 91 132 15 162 38 130
100 -13 23 -54 24 -210 3z"/>
</g>
</svg>
