<svg version="1.1" id="Layer_1" xmlns="http://www.w3.org/2000/svg" xmlns:xlink="http://www.w3.org/1999/xlink" x="0px" y="0px"
	 width="100%" viewBox="0 0 512 512" enable-background="new 0 0 512 512" xml:space="preserve">
<path fill="#000000" opacity="1.000000" stroke="none" 
	d="
M270.000000,513.000000 
	C180.021835,513.000000 90.543671,513.000000 1.032752,513.000000 
	C1.032752,342.396820 1.032752,171.793610 1.032752,1.095206 
	C171.561523,1.095206 342.123108,1.095206 512.842346,1.095206 
	C512.842346,171.666550 512.842346,342.333252 512.842346,513.000000 
	C432.126923,513.000000 351.313446,513.000000 270.000000,513.000000 
M451.727356,64.350952 
	C445.275543,57.197231 437.395752,53.904655 427.604401,53.915501 
	C313.114075,54.042324 198.623306,54.109936 84.133362,53.862190 
	C68.731415,53.828857 53.909046,69.492432 53.925762,84.168465 
	C54.056530,198.992096 53.966537,313.815979 54.125561,428.639526 
	C54.131268,432.757751 56.018120,436.873383 57.104282,441.693573 
	C63.215981,453.671478 73.101929,459.714539 86.442207,459.720184 
	C199.434250,459.767944 312.427155,459.526123 425.417633,459.945679 
	C443.705597,460.013611 460.237579,446.253174 460.043732,425.175903 
	C459.439819,359.519440 459.824524,293.853851 459.829468,228.191788 
	C459.833038,180.528473 459.841705,132.865143 459.849670,85.201828 
	C459.850952,77.440758 457.727753,70.504379 451.727356,64.350952 
z"/>
<path fill="#01569A" opacity="1.000000" stroke="none" 
	d="
M57.028259,440.990204 
	C56.018120,436.873383 54.131268,432.757751 54.125561,428.639526 
	C53.966537,313.815979 54.056530,198.992096 53.925762,84.168465 
	C53.909046,69.492432 68.731415,53.828857 84.133362,53.862190 
	C198.623306,54.109936 313.114075,54.042324 427.604401,53.915501 
	C437.395752,53.904655 445.275543,57.197231 451.888123,65.046906 
	C452.988617,68.745544 454.086304,71.709610 454.831757,74.759758 
	C456.009705,79.579483 457.830292,84.452316 457.855896,89.310707 
	C458.089447,133.635193 457.998322,177.961426 457.974091,222.287125 
	C457.973145,224.019592 457.690063,225.751892 457.427185,228.755280 
	C455.000092,226.858734 453.403900,225.843903 452.088348,224.544876 
	C444.855469,217.402939 437.739227,210.142273 430.460480,203.048035 
	C429.109314,201.731125 427.198761,200.988220 425.294159,199.733536 
	C400.533691,175.136673 376.025452,150.786652 351.041443,125.963989 
	C351.041443,144.812683 351.041443,163.182358 351.041443,182.045135 
	C306.873993,182.045135 263.167206,182.045135 219.076141,182.045135 
	C219.076141,193.997971 219.055359,205.454971 219.116028,216.911545 
	C219.120819,217.816238 219.691467,218.717926 220.106506,219.908386 
	C221.528198,221.683228 222.768051,223.245056 224.167969,224.647049 
	C245.438293,245.948868 266.746185,267.213257 287.982361,288.549011 
	C289.568146,290.142273 290.675720,292.211517 291.549866,294.179321 
	C266.755951,294.347443 242.417770,294.395691 217.927582,294.116150 
	C211.896988,287.738861 206.097961,281.609528 200.123230,275.656555 
	C187.811401,263.389526 175.405746,251.216660 162.820267,238.834488 
	C161.810410,239.247894 160.927917,239.740906 160.240723,240.429001 
	C136.735794,263.963318 113.247688,287.514435 89.768738,311.074677 
	C89.085495,311.760254 88.527016,312.570190 87.622360,313.673340 
	C108.947289,334.886169 130.130630,355.993408 151.365707,377.048492 
	C155.111679,380.762726 159.073715,384.259033 162.967941,388.225708 
	C164.251907,390.482666 165.231796,392.640228 166.797241,394.216064 
	C185.919861,413.465179 205.136490,432.620880 224.296951,451.832489 
	C225.611160,453.150177 226.671692,454.720886 228.554565,457.042358 
	C225.682617,457.473541 223.967575,457.954285 222.252075,457.955933 
	C178.805695,457.997284 135.359070,458.056854 91.913025,457.927124 
	C83.809929,457.902924 76.158600,455.920593 69.666374,450.498474 
	C65.625320,447.123535 61.252296,444.146057 57.028259,440.990204 
z"/>
<path fill="#015293" opacity="1.000000" stroke="none" 
	d="
M57.066269,441.341888 
	C61.252296,444.146057 65.625320,447.123535 69.666374,450.498474 
	C76.158600,455.920593 83.809929,457.902924 91.913025,457.927124 
	C135.359070,458.056854 178.805695,457.997284 222.252075,457.955933 
	C223.967575,457.954285 225.682617,457.473541 228.554565,457.042358 
	C226.671692,454.720886 225.611160,453.150177 224.296951,451.832489 
	C205.136490,432.620880 185.919861,413.465179 166.797241,394.216064 
	C165.231796,392.640228 164.251907,390.482666 162.948364,387.766357 
	C162.896805,368.691711 162.896805,350.446075 162.896805,331.791931 
	C207.194733,331.791931 250.772034,331.791931 294.988403,331.791931 
	C294.988403,320.586243 294.988403,309.793213 295.325867,298.934113 
	C297.206940,297.647247 298.887573,296.564026 300.273224,295.184509 
	C315.463654,280.061310 330.588898,264.872559 345.795471,249.765671 
	C347.279297,248.291565 349.187561,247.244705 350.985107,246.461212 
	C351.071381,256.146423 351.071381,265.369904 351.071381,275.503906 
	C352.653778,274.171753 353.431854,273.610168 354.100983,272.939850 
	C377.288544,249.711487 400.473083,226.480072 423.616119,203.207397 
	C424.473846,202.344864 424.912445,201.065506 425.546356,199.980392 
	C427.198761,200.988220 429.109314,201.731125 430.460480,203.048035 
	C437.739227,210.142273 444.855469,217.402939 452.088348,224.544876 
	C453.403900,225.843903 455.000092,226.858734 457.427185,228.755280 
	C457.690063,225.751892 457.973145,224.019592 457.974091,222.287125 
	C457.998322,177.961426 458.089447,133.635193 457.855896,89.310707 
	C457.830292,84.452316 456.009705,79.579483 454.831757,74.759758 
	C454.086304,71.709610 452.988617,68.745544 452.033691,65.348114 
	C457.727753,70.504379 459.850952,77.440758 459.849670,85.201828 
	C459.841705,132.865143 459.833038,180.528473 459.829468,228.191788 
	C459.824524,293.853851 459.439819,359.519440 460.043732,425.175903 
	C460.237579,446.253174 443.705597,460.013611 425.417633,459.945679 
	C312.427155,459.526123 199.434250,459.767944 86.442207,459.720184 
	C73.101929,459.714539 63.215981,453.671478 57.066269,441.341888 
z"/>
<path fill="#FBFCFC" opacity="1.000000" stroke="none" 
	d="
M294.988403,299.000153 
	C294.988403,309.793213 294.988403,320.586243 294.988403,331.791931 
	C250.772034,331.791931 207.194733,331.791931 162.896805,331.791931 
	C162.896805,350.446075 162.896805,368.691711 162.916382,387.396667 
	C159.073715,384.259033 155.111679,380.762726 151.365707,377.048492 
	C130.130630,355.993408 108.947289,334.886169 87.622360,313.673340 
	C88.527016,312.570190 89.085495,311.760254 89.768738,311.074677 
	C113.247688,287.514435 136.735794,263.963318 160.240723,240.429001 
	C160.927917,239.740906 161.810410,239.247894 162.758057,239.299194 
	C162.914276,258.018433 162.914276,276.102386 162.914276,294.443939 
	C181.609314,294.443939 199.844467,294.443939 218.079605,294.443939 
	C242.417770,294.395691 266.755951,294.347443 291.887848,294.302368 
	C293.450500,295.870453 294.219452,297.435303 294.988403,299.000153 
z"/>
<path fill="#FCFDFD" opacity="1.000000" stroke="none" 
	d="
M425.294159,199.733536 
	C424.912445,201.065506 424.473846,202.344864 423.616119,203.207397 
	C400.473083,226.480072 377.288544,249.711487 354.100983,272.939850 
	C353.431854,273.610168 352.653778,274.171753 351.071381,275.503906 
	C351.071381,265.369904 351.071381,256.146423 351.070526,245.999435 
	C351.069672,236.638947 351.069672,228.201935 351.069672,219.524857 
	C349.300903,219.424194 348.007812,219.286682 346.714691,219.286316 
	C305.791595,219.274582 264.868500,219.272964 223.945389,219.290283 
	C222.629929,219.290833 221.314545,219.505936 219.999130,219.621033 
	C219.691467,218.717926 219.120819,217.816238 219.116028,216.911545 
	C219.055359,205.454971 219.076141,193.997971 219.076141,182.045135 
	C263.167206,182.045135 306.873993,182.045135 351.041443,182.045135 
	C351.041443,163.182358 351.041443,144.812683 351.041443,125.963989 
	C376.025452,150.786652 400.533691,175.136673 425.294159,199.733536 
z"/>
<path fill="#015191" opacity="1.000000" stroke="none" 
	d="
M220.106506,219.908386 
	C221.314545,219.505936 222.629929,219.290833 223.945389,219.290283 
	C264.868500,219.272964 305.791595,219.274582 346.714691,219.286316 
	C348.007812,219.286682 349.300903,219.424194 351.069672,219.524857 
	C351.069672,228.201935 351.069672,236.638947 350.984253,245.537750 
	C349.187561,247.244705 347.279297,248.291565 345.795471,249.765671 
	C330.588898,264.872559 315.463654,280.061310 300.273224,295.184509 
	C298.887573,296.564026 297.206940,297.647247 295.325867,298.934113 
	C294.219452,297.435303 293.450500,295.870453 292.343597,294.182526 
	C290.675720,292.211517 289.568146,290.142273 287.982361,288.549011 
	C266.746185,267.213257 245.438293,245.948868 224.167969,224.647049 
	C222.768051,223.245056 221.528198,221.683228 220.106506,219.908386 
z"/>
<path fill="#01508F" opacity="1.000000" stroke="none" 
	d="
M217.927582,294.116150 
	C199.844467,294.443939 181.609314,294.443939 162.914276,294.443939 
	C162.914276,276.102386 162.914276,258.018433 162.976486,239.469757 
	C175.405746,251.216660 187.811401,263.389526 200.123230,275.656555 
	C206.097961,281.609528 211.896988,287.738861 217.927582,294.116150 
z"/>
</svg>